<svg xmlns="http://www.w3.org/2000/svg" fill="#e22e6e" xmlns:xlink="http://www.w3.org/1999/xlink" version="1.1" x="0px" y="0px" viewBox="0 0 104 120" enable-background="new 0 0 104 96" xml:space="preserve"><path d="M4,32c-2.208,0-4,1.788-4,4v24c0,2.212,1.792,4,4,4s4-1.788,4-4V36C8,33.788,6.208,32,4,32z"/><path d="M16,20c-2.208,0-4,1.788-4,4v48c0,2.212,1.792,4,4,4s4-1.788,4-4V24C20,21.788,18.208,20,16,20z"/><path d="M52,32c-2.208,0-4,1.788-4,4v24c0,2.212,1.792,4,4,4s4-1.788,4-4V36C56,33.788,54.208,32,52,32z"/><path d="M40,24c-2.208,0-4,1.788-4,4v40c0,2.212,1.792,4,4,4s4-1.788,4-4V28C44,25.788,42.208,24,40,24z"/><path d="M28,12c-2.208,0-4,1.788-4,4v64c0,2.212,1.792,4,4,4s4-1.788,4-4V16C32,13.788,30.208,12,28,12z"/><path d="M64,24c-2.208,0-4,1.788-4,4v40c0,2.212,1.792,4,4,4s4-1.788,4-4V28C68,25.788,66.208,24,64,24z"/><path d="M100,32c-2.208,0-4,1.788-4,4v24c0,2.212,1.792,4,4,4s4-1.788,4-4V36C104,33.788,102.208,32,100,32z"/><path d="M88,24c-2.208,0-4,1.788-4,4v40c0,2.212,1.792,4,4,4s4-1.788,4-4V28C92,25.788,90.208,24,88,24z"/><path d="M76,16c-2.208,0-4,1.788-4,4v56c0,2.212,1.792,4,4,4s4-1.788,4-4V20C80,17.788,78.208,16,76,16z"/></svg>